<?xml version="1.0" encoding="utf-8"?>
<!-- Generator: Adobe Illustrator 17.0.1, SVG Export Plug-In . SVG Version: 6.00 Build 0)  -->
<!DOCTYPE svg PUBLIC "-//W3C//DTD SVG 1.1//EN" "http://www.w3.org/Graphics/SVG/1.1/DTD/svg11.dtd">
<svg version="1.1" id="Layer_1" xmlns="http://www.w3.org/2000/svg" xmlns:xlink="http://www.w3.org/1999/xlink" x="0px" y="0px"
	 width="236.37px" height="78.465px" viewBox="0 0 236.37 78.465" style="enable-background:new 0 0 236.37 78.465;"
	 xml:space="preserve">
<style type="text/css">
	.st0{fill:#69b40f;}
</style>
<g>
	<g>
		<path class="st0" d="M216.715,66.32c-12.512,0.086-24.355,0.184-27.656-0.112c-6.68-0.579-11.145-4.95-11.662-11.382
			c-0.354-4.219-0.354-7.716-0.023-11.044c0.609-6.261,5.848-12.229,11.686-12.51c2.09-0.114,7.688-0.101,17.818-0.061l29.492,0.061
			V19.039c0,0-23.49-0.027-30.551-0.058c-9.482-0.043-14.252-0.049-17.273,0.058c-6.646,0.252-12.217,2.62-16.549,7.018
			c-4.098,4.151-6.545,10.758-6.908,17.447c-0.205,3.607-0.275,8.323,0,11.125c0.682,7.191,3.008,12.835,6.908,16.789
			c4.172,4.246,10.521,6.934,16.555,7.02c4.951,0.062,47.818,0,47.818,0v-12.23C236.37,66.208,223.348,66.261,216.715,66.32z"/>
		<path class="st0" d="M83.584,19.689v12.222c0,0,28.623,0,29.095,0c0,0.493,0,46.31,0,46.31h12.284c0,0,0-45.817,0-46.31
			c0.49,0,29.1,0,29.1,0V19.689H83.584z"/>
		<path class="st0" d="M70.828,42.802c-0.09-6.58-2.408-12.229-6.912-16.793c-4.693-4.775-11.86-6.761-16.547-7.011
			c-4.076-0.229-20.141-0.157-23.914,0c-5.313,0.226-9.187,1.81-11.126,3.258c-0.02,0.013-0.04,0.007-0.04-0.023
			c0-1.394,0-22.232,0-22.232H0v78.438h12.268c0,0-0.239-32.108,0.034-35.602c0.488-6.217,5.204-11.097,11.212-11.625
			c4.823-0.413,19.291-0.3,23.827,0.01c6.234,0.429,10.834,5.301,11.197,11.86c0.119,2.415-0.007,35.357-0.007,35.357h12.296
			C70.828,78.438,70.86,45.626,70.828,42.802z"/>
	</g>
</g>
</svg>